<?xml version="1.0" standalone="no"?>
<!DOCTYPE svg PUBLIC "-//W3C//DTD SVG 20010904//EN"
 "http://www.w3.org/TR/2001/REC-SVG-20010904/DTD/svg10.dtd">
<svg version="1.0" xmlns="http://www.w3.org/2000/svg"
 width="512.000000pt" height="512.000000pt" viewBox="0 0 512.000000 512.000000"
 preserveAspectRatio="xMidYMid meet">
<metadata>
Created by potrace 1.16, written by Peter Selinger 2001-2019
</metadata>
<g transform="translate(0.000000,512.000000) scale(0.100000,-0.100000)"
fill="#000000" stroke="none">
<path d="M2462 4399 c-90 -11 -222 -55 -299 -100 -32 -19 -97 -72 -144 -119
-73 -73 -94 -101 -132 -180 -56 -115 -81 -230 -74 -333 2 -40 58 -473 125
-963 98 -731 124 -902 144 -950 l24 -60 -29 -39 c-37 -50 -75 -132 -93 -198
-18 -69 -18 -228 1 -301 60 -230 262 -406 502 -436 292 -37 574 153 648 436
19 73 19 232 1 301 -18 66 -56 148 -93 198 l-29 39 24 60 c20 48 46 221 145
950 137 1003 140 1049 95 1188 -113 343 -448 551 -816 507z m293 -184 c250
-84 409 -309 393 -557 -3 -40 -58 -463 -122 -941 -83 -618 -122 -880 -136
-911 -10 -25 -35 -62 -54 -84 l-36 -40 63 -63 c106 -106 151 -240 129 -375
-59 -358 -487 -497 -743 -242 -172 172 -167 457 12 622 l60 56 -40 46 c-22 25
-47 64 -56 87 -17 46 -245 1711 -252 1847 -6 102 8 172 52 265 124 258 445
386 730 290z"/>
<path d="M2415 4069 c-168 -58 -284 -204 -288 -364 -3 -93 231 -1802 252
-1844 33 -65 59 -76 181 -76 123 0 151 12 182 76 20 42 254 1755 251 1844 -4
162 -125 312 -292 365 -85 27 -205 26 -286 -1z"/>
<path d="M2523 1526 c-44 -90 -82 -129 -168 -173 -41 -21 -75 -41 -75 -44 0
-4 33 -23 73 -44 93 -48 117 -72 163 -161 21 -41 41 -74 44 -74 4 0 22 29 39
65 46 93 74 121 162 166 44 21 79 43 79 47 0 4 -34 24 -75 45 -86 44 -124 83
-168 173 -17 35 -34 64 -37 64 -3 0 -20 -29 -37 -64z"/>
</g>
</svg>
