<?xml version="1.0" standalone="no"?>
<!DOCTYPE svg PUBLIC "-//W3C//DTD SVG 20010904//EN"
 "http://www.w3.org/TR/2001/REC-SVG-20010904/DTD/svg10.dtd">
<svg version="1.0" xmlns="http://www.w3.org/2000/svg"
 width="1000.000000pt" height="666.000000pt" viewBox="0 0 1000.000000 666.000000"
 preserveAspectRatio="xMidYMid meet">
<metadata>
Created by potrace 1.16, written by Peter Selinger 2001-2019
</metadata>
<g transform="translate(0.000000,666.000000) scale(0.100000,-0.100000)"
fill="#000000" stroke="none">
<path d="M0 3330 l0 -3330 1461 0 1462 0 43 40 c23 21 53 42 66 45 23 6 23 8
25 168 1 166 13 273 40 362 12 37 17 111 19 280 l4 230 -46 180 c-70 279 -69
259 -25 336 38 65 38 67 44 200 7 185 38 301 129 482 101 199 167 281 273 335
22 11 97 65 167 121 130 103 307 205 434 251 52 18 72 34 143 110 67 71 95 94
152 120 38 17 69 36 69 40 0 33 -45 218 -56 231 -8 8 -14 21 -14 27 0 7 -4 12
-10 12 -10 0 -70 56 -70 65 0 4 4 3 10 0 6 -3 7 1 4 9 -9 24 -29 19 -44 -9 -9
-16 -22 -25 -39 -26 -14 0 -33 -2 -41 -5 -61 -16 -68 -16 -73 3 -3 16 -5 15
-15 -7 l-11 -25 -7 23 c-7 25 -19 29 -28 7 -6 -18 -36 -9 -36 11 0 14 -5 16
-45 18 -11 1 -20 7 -20 14 0 7 -6 17 -14 21 -8 5 -14 22 -14 38 0 23 -5 29
-24 31 -17 1 -23 -3 -23 -18 0 -14 5 -18 18 -14 10 4 13 2 7 -3 -6 -4 -22 -24
-35 -43 -35 -51 -50 -65 -50 -48 0 7 -12 1 -25 -15 -28 -32 -80 -37 -101 -9
-13 16 -13 16 -14 -3 0 -11 -4 -16 -8 -10 -11 15 -31 16 -55 3 -12 -7 -26 -11
-31 -10 -4 2 -14 -2 -21 -8 -10 -8 -15 -8 -21 1 -5 9 -11 7 -21 -6 -8 -12 -13
-14 -13 -6 0 10 -3 11 -14 2 -10 -8 -16 -9 -21 -1 -9 14 -58 13 -73 -2 -10
-10 -17 -10 -32 0 -12 7 -21 8 -25 2 -3 -6 -14 -10 -23 -10 -13 0 -14 2 -4 9
10 6 10 10 -3 21 -17 14 -103 21 -111 9 -2 -5 -11 -6 -19 -2 -8 3 -15 0 -15
-6 0 -6 -15 -11 -32 -11 -25 0 -29 -3 -18 -10 8 -5 11 -10 5 -11 -21 -3 -50 3
-62 13 -7 5 -16 7 -22 4 -5 -4 -16 -1 -23 6 -31 28 -80 48 -105 42 -16 -4 -28
-2 -34 7 -4 8 -19 14 -31 14 -13 1 -29 4 -35 8 -7 5 -13 5 -13 1 0 -3 -12 1
-26 11 -20 13 -28 14 -40 4 -12 -10 -17 -8 -29 7 -8 11 -14 14 -15 7 0 -18
-30 -16 -30 2 0 24 -20 17 -21 -7 -1 -22 -1 -22 -8 2 -6 22 -8 23 -14 6 -6
-14 -10 -16 -21 -7 -18 15 -49 11 -56 -7 -3 -8 -10 -13 -14 -12 -5 1 -13 -4
-17 -12 -7 -11 -11 -10 -18 2 -5 8 -22 14 -38 15 -21 0 -28 5 -28 20 0 11 -8
21 -18 23 -10 2 -14 8 -10 15 5 8 2 8 -9 0 -13 -11 -15 -9 -14 15 1 15 -7 35
-16 45 -22 21 -25 21 -44 2 -9 -8 -13 -15 -9 -15 3 0 1 -9 -5 -20 -6 -11 -17
-20 -25 -20 -8 0 -15 -7 -15 -16 0 -8 -4 -13 -8 -10 -5 3 -30 -17 -56 -44 -32
-33 -53 -47 -63 -43 -12 5 -15 2 -10 -9 5 -14 1 -15 -24 -8 -19 6 -29 5 -29
-2 0 -5 -6 -8 -14 -5 -8 3 -20 -1 -27 -9 -7 -8 -19 -12 -26 -9 -8 3 -32 2 -54
-1 -29 -5 -39 -11 -35 -21 4 -10 1 -11 -12 -4 -9 5 -77 8 -150 7 -74 0 -136 3
-139 7 -3 5 -11 6 -19 3 -8 -3 -14 0 -14 6 0 7 -4 7 -13 0 -13 -11 -97 6 -97
20 0 4 -7 5 -15 2 -9 -4 -15 0 -15 9 0 9 -13 18 -30 22 -17 4 -28 11 -24 16 3
5 -2 12 -10 15 -9 3 -16 17 -16 31 0 16 -7 27 -20 30 -24 6 -29 24 -28 85 1
38 5 47 21 52 17 4 18 7 8 20 -22 26 61 102 143 130 36 13 63 26 60 29 -4 3 7
9 22 12 16 4 41 13 55 20 14 8 29 12 32 9 11 -12 93 -9 132 4 27 9 41 10 43 3
5 -15 29 -14 34 1 3 7 11 9 24 3 10 -4 29 -7 41 -6 12 1 31 -3 43 -9 16 -8 25
-8 35 0 9 7 15 8 20 0 10 -17 22 -12 29 13 4 15 9 18 14 10 12 -19 54 -31 90
-26 20 3 32 1 32 -6 0 -6 9 -11 20 -11 18 0 25 11 21 34 -1 5 10 1 24 -8 15
-10 34 -15 42 -12 11 4 13 2 9 -9 -3 -8 -3 -15 0 -15 10 0 34 28 34 39 0 6 5
11 10 11 6 0 10 -4 10 -10 0 -18 18 -10 25 10 4 11 10 18 15 15 5 -3 11 -1 15
5 4 6 10 8 15 5 4 -3 10 2 13 10 9 22 64 47 85 37 9 -5 34 -8 55 -6 26 2 35
-1 31 -8 -5 -7 -2 -9 9 -5 8 3 21 -1 28 -9 8 -10 16 -11 22 -5 6 6 18 4 33 -6
20 -13 28 -13 54 -2 16 8 30 17 30 21 0 4 6 5 14 2 8 -3 17 -1 21 5 3 6 15 11
26 11 10 0 19 4 19 8 0 10 178 8 201 -2 10 -4 19 -3 23 2 6 11 66 3 66 -9 0
-5 6 -9 14 -9 8 0 16 -4 18 -9 1 -5 23 -11 48 -12 25 -2 59 -10 75 -19 17 -9
49 -16 72 -16 24 1 43 -2 43 -6 0 -5 8 -8 18 -8 10 0 24 -6 30 -12 10 -10 15
-10 22 2 8 12 10 10 10 -9 0 -19 3 -21 14 -12 10 9 21 7 45 -6 17 -10 31 -21
31 -25 0 -4 7 -5 15 -2 10 4 15 0 15 -15 0 -12 6 -21 14 -21 8 0 16 -6 19 -13
2 -6 29 -21 58 -31 30 -10 58 -23 64 -27 5 -5 18 -9 30 -9 16 0 17 -2 5 -10
-13 -9 -13 -10 0 -11 8 -1 20 -1 27 0 6 1 14 -6 16 -16 4 -17 5 -17 6 0 1 19
21 24 21 5 0 -7 5 -5 11 5 5 9 18 17 27 17 15 0 15 -2 2 -11 -12 -8 -10 -9 9
-4 14 5 26 2 31 -5 5 -8 10 -2 14 15 6 25 10 27 42 20 20 -3 41 -2 47 3 14 10
183 37 210 33 9 -1 17 2 17 8 0 17 30 0 31 -18 2 -46 27 79 28 144 l1 29 23
-22 c20 -21 22 -32 24 -160 1 -147 8 -235 24 -293 5 -20 12 -60 15 -90 8 -73
9 -76 23 -139 21 -95 44 -169 51 -165 11 7 38 -108 70 -304 11 -69 22 -126 24
-128 2 -2 36 -10 75 -19 77 -15 140 -12 225 12 59 17 69 17 61 4 -4 -6 8 -10
30 -10 41 0 109 35 125 65 6 11 40 35 76 54 73 38 356 224 421 277 51 42 115
136 143 211 26 69 23 101 -5 47 -11 -21 -24 -42 -28 -45 -4 -3 -7 -10 -5 -15
2 -5 -7 -22 -18 -37 -17 -21 -23 -24 -28 -12 -5 13 -9 13 -27 3 -18 -11 -22
-11 -26 0 -3 9 -15 3 -35 -19 -33 -34 -48 -28 -48 23 0 14 -6 29 -12 31 -10 4
-10 6 -1 6 9 1 7 16 -6 54 -30 85 -40 187 -28 265 3 17 2 32 -3 32 -4 0 -10
15 -12 34 -2 19 -1 33 3 30 11 -7 23 17 12 25 -20 13 -23 46 -7 95 9 28 19 56
23 61 3 6 4 18 3 27 -2 10 5 34 14 53 15 31 15 46 6 103 -20 118 -22 146 -11
135 12 -12 49 -6 49 8 0 5 -6 9 -12 9 -7 0 -5 5 5 11 9 5 22 7 27 4 6 -3 10
-1 10 4 0 6 -5 11 -11 11 -5 0 -7 5 -3 12 5 8 13 4 26 -11 10 -13 18 -19 18
-13 0 6 13 13 28 17 19 4 32 15 40 37 6 18 15 29 18 25 10 -10 -13 -64 -44
-104 -36 -46 -52 -103 -28 -103 9 0 18 11 22 24 6 26 44 67 44 48 0 -6 -11
-57 -24 -114 -13 -57 -26 -148 -29 -203 -4 -78 -3 -90 5 -57 7 32 14 42 29 42
10 0 19 -7 19 -15 0 -8 5 -15 10 -15 6 0 10 6 10 13 0 7 15 12 41 13 22 0 44
6 49 13 4 8 15 11 24 8 9 -4 16 -3 16 2 0 5 27 14 59 20 53 10 64 10 95 -7 20
-11 33 -22 30 -25 -3 -3 18 -5 48 -5 30 -1 56 4 60 11 6 9 10 9 17 -1 6 -11
17 -11 45 -4 20 6 36 7 36 4 0 -4 5 0 10 8 5 8 10 10 10 4 0 -13 102 -6 111 8
4 6 9 5 12 -3 4 -10 8 -11 14 -3 8 11 46 22 93 28 14 2 25 4 25 5 0 1 16 4 35
6 46 5 62 9 77 18 7 5 37 9 65 9 29 0 59 5 66 11 8 6 12 6 12 -2 0 -17 17 -13
38 10 18 19 21 19 36 4 12 -12 16 -13 16 -3 0 10 3 9 10 -2 8 -13 11 -12 24 5
9 11 16 23 16 28 0 15 20 6 20 -10 0 -15 1 -15 18 0 20 18 42 22 42 8 0 -5 23
-11 50 -13 28 -3 58 -12 68 -22 10 -9 25 -16 33 -16 8 0 21 -9 29 -20 8 -11
20 -20 27 -20 27 0 83 -40 83 -59 0 -6 5 -11 11 -11 6 0 9 -7 5 -15 -3 -8 -1
-15 4 -15 6 0 9 -3 8 -7 -1 -5 4 -25 11 -46 10 -28 10 -41 1 -51 -8 -10 -8
-16 0 -21 13 -8 6 -93 -9 -108 -6 -6 -11 -19 -11 -29 0 -25 -29 -68 -46 -68
-8 0 -14 -9 -14 -20 0 -11 -6 -20 -13 -20 -7 0 -23 -9 -35 -20 -12 -11 -25
-19 -29 -18 -4 1 -23 -6 -41 -15 -36 -20 -112 -29 -112 -14 0 6 -4 6 -12 0 -7
-5 -53 -8 -103 -7 -105 4 -141 9 -158 21 -7 5 -50 10 -96 11 -45 2 -91 7 -101
12 -10 6 -26 7 -35 4 -19 -8 -135 26 -135 39 0 5 -4 5 -10 2 -11 -7 -47 15
-48 28 -1 14 -12 21 -12 9 0 -15 -33 -15 -48 0 -8 8 -15 8 -25 -1 -12 -9 -16
-8 -21 5 -4 10 -12 14 -22 10 -9 -4 -23 -1 -30 5 -11 9 -14 8 -14 -2 0 -12 -2
-12 -9 0 -6 9 -10 10 -16 2 -5 -9 -10 -9 -20 -1 -14 12 -45 3 -45 -12 0 -7 -5
-7 -13 0 -14 12 -97 -4 -107 -19 -3 -5 -19 -1 -35 7 -17 8 -32 15 -35 14 -24
-6 -110 16 -130 34 -13 11 -19 14 -13 5 7 -8 10 -25 6 -37 -4 -17 2 -25 28
-39 18 -10 54 -39 79 -65 29 -29 56 -48 70 -48 25 0 90 -37 90 -51 0 -4 7 -5
17 -2 11 4 14 3 9 -5 -4 -7 7 -17 29 -26 19 -8 61 -34 93 -56 77 -55 364 -305
536 -465 76 -71 156 -145 177 -163 22 -19 39 -38 39 -43 0 -5 25 -39 55 -74
77 -92 98 -127 132 -235 50 -152 55 -202 54 -482 -1 -156 3 -267 9 -283 14
-37 47 -197 55 -266 5 -44 0 -81 -25 -180 -34 -134 -49 -312 -55 -684 -1 -93
-7 -181 -13 -195 -5 -14 -13 -65 -17 -113 l-7 -87 1446 0 1446 0 0 3330 0
3330 -5000 0 -5000 0 0 -3330z m4736 2481 c15 -13 69 -21 84 -11 9 6 18 5 23
-3 7 -9 10 -9 14 1 2 6 9 12 14 12 6 0 7 -4 4 -10 -3 -5 2 -10 12 -10 11 0 28
-7 39 -15 26 -20 40 -19 23 2 -13 15 -12 15 9 2 12 -8 22 -17 22 -22 0 -4 14
-13 30 -18 17 -6 30 -17 30 -25 0 -8 10 -14 26 -14 18 0 40 -14 68 -42 22 -23
44 -43 49 -44 4 -1 10 -2 15 -3 4 -1 0 -6 -8 -11 -8 -5 -10 -10 -3 -10 6 0 9
-10 7 -22 -2 -13 -2 -18 1 -12 4 9 14 8 35 -2 39 -20 29 -44 -17 -44 -26 0
-34 4 -30 14 8 21 -3 27 -26 14 -16 -8 -23 -7 -34 8 -16 22 -56 28 -48 6 4
-11 0 -13 -16 -9 -17 5 -20 2 -16 -13 3 -13 0 -17 -9 -13 -8 3 -14 12 -14 20
0 10 -6 13 -16 9 -16 -6 -48 17 -37 28 4 3 -1 6 -10 6 -9 0 -17 -6 -17 -12 0
-10 -2 -10 -9 0 -4 8 -19 11 -35 8 -21 -4 -26 -1 -23 9 9 21 -29 24 -62 4 -33
-20 -63 -63 -36 -53 8 4 15 1 15 -5 0 -6 -11 -13 -25 -17 -13 -3 -30 -12 -36
-20 -9 -12 -9 -13 4 -9 8 4 23 -2 33 -13 11 -11 29 -23 42 -26 12 -4 22 -10
22 -14 0 -4 34 -7 75 -7 53 0 74 -3 71 -12 -3 -6 2 -14 10 -17 8 -3 14 -1 14
4 0 13 57 13 65 0 3 -5 11 -10 16 -10 6 0 8 4 5 9 -4 5 3 7 14 4 25 -7 26 -23
3 -23 -15 0 -16 -2 -3 -10 8 -5 19 -5 25 0 15 12 55 1 55 -15 0 -8 -8 -16 -17
-19 -10 -3 6 -4 35 -2 52 3 66 -4 67 -34 0 -9 7 -14 18 -12 9 2 17 -2 17 -9 0
-6 6 -9 14 -6 7 3 19 0 26 -6 9 -9 14 -9 17 0 5 14 104 -26 178 -72 63 -40 93
-52 76 -31 -8 10 -9 16 -1 21 19 12 -2 27 -31 21 -16 -3 -31 -1 -35 6 -5 7 -2
9 8 5 9 -3 24 3 34 14 17 19 18 19 43 -3 14 -13 20 -16 14 -8 -21 23 -15 35 7
15 11 -10 20 -22 20 -27 0 -5 11 -26 24 -47 24 -37 24 -40 7 -55 -11 -10 -25
-14 -36 -10 -13 5 -16 4 -11 -4 4 -7 15 -12 25 -12 13 0 22 -12 29 -40 10 -39
9 -40 -17 -40 -22 -1 -24 -2 -8 -11 9 -5 17 -22 17 -37 0 -15 5 -34 10 -42 7
-12 11 -10 19 10 l10 25 0 -23 c1 -16 5 -21 14 -16 9 6 9 5 0 -7 -13 -16 -7
-89 8 -89 5 0 5 -7 2 -17 -5 -12 -3 -14 8 -8 12 7 12 6 1 -7 -8 -10 -9 -19 -3
-22 14 -9 12 -216 -3 -210 -16 6 -46 -69 -39 -97 3 -13 2 -21 -2 -17 -12 12
-36 -28 -28 -48 4 -12 2 -15 -8 -12 -8 2 -16 15 -17 29 -2 13 -1 21 4 17 12
-13 36 31 29 53 -5 15 -4 19 4 15 6 -4 11 -2 11 4 0 24 -25 2 -28 -23 -2 -15
-8 -25 -13 -22 -5 4 -9 1 -9 -6 0 -8 -6 -6 -18 4 -25 23 -31 21 -26 -5 2 -13
-2 -7 -9 12 -12 30 -15 32 -23 17 -9 -16 -12 -16 -42 -1 -31 15 -35 15 -77 -5
-53 -25 -65 -26 -65 -6 0 9 -11 20 -25 25 -14 5 -25 13 -25 18 0 18 -42 52
-65 52 -13 0 -26 6 -28 13 -4 9 -7 9 -15 -1 -12 -18 -78 -27 -87 -13 -11 19
23 61 55 67 30 6 43 31 26 50 -6 6 -20 9 -32 6 -12 -2 -25 1 -28 7 -4 6 -18
11 -32 11 -13 0 -24 3 -24 8 0 11 -54 12 -61 1 -3 -6 -2 -32 4 -59 5 -27 6
-57 3 -67 -7 -17 -8 -17 -19 2 -20 36 -67 65 -106 65 -10 0 -30 14 -44 30 -29
33 -47 36 -80 18 -30 -16 -117 -27 -117 -15 0 6 11 25 25 43 16 20 25 46 25
68 0 33 20 66 40 66 5 0 7 6 4 13 -3 9 -23 14 -55 15 -29 0 -47 -3 -44 -9 9
-13 -2 -11 -28 6 -18 12 -30 12 -60 3 -20 -6 -36 -16 -35 -22 1 -6 -1 -24 -5
-39 -5 -20 -13 -27 -22 -23 -8 3 -15 1 -15 -4 0 -6 5 -10 11 -10 5 0 7 -4 4
-10 -3 -5 -15 -10 -25 -10 -13 0 -17 -5 -14 -14 7 -17 -47 -48 -74 -44 -9 2
-16 -2 -15 -8 4 -20 -35 -23 -55 -4 -18 17 -20 16 -46 -37 -41 -85 -85 -223
-69 -223 3 0 14 7 24 16 31 28 34 -17 4 -75 -14 -28 -25 -65 -26 -83 0 -32 -1
-32 -10 -8 -6 13 -11 74 -11 135 -2 95 2 120 24 183 14 39 23 72 19 72 -17 0
-45 89 -45 145 -1 94 7 198 16 225 5 17 6 8 3 -28 -5 -59 8 -62 26 -4 11 38
46 89 54 80 3 -3 -8 -31 -25 -63 -23 -45 -30 -70 -30 -116 0 -46 3 -59 15 -59
8 0 15 7 15 15 0 9 7 29 15 44 8 16 18 63 24 106 9 76 9 79 -17 112 -31 38
-39 40 -45 16 -3 -10 -5 -4 -6 13 -1 44 36 55 62 19 10 -14 25 -25 32 -25 7 0
15 -8 18 -17 2 -10 7 5 11 32 28 205 35 233 61 259 26 27 26 46 -1 46 -8 0
-13 -4 -10 -8 3 -5 -6 -19 -19 -30 -17 -15 -25 -33 -26 -54 -1 -43 -13 -77
-21 -57 -13 34 40 266 69 300 7 8 13 20 13 26 0 6 7 16 15 23 12 10 15 10 15
-1 0 -12 2 -12 9 0 5 8 7 19 5 26 -3 6 3 18 13 26 16 13 17 12 4 -4 -8 -9 -11
-20 -8 -24 4 -3 33 23 66 58 32 35 62 61 66 57 4 -4 2 -14 -5 -23 -8 -10 -9
-15 -1 -15 6 0 11 3 11 8 0 7 49 41 61 42 3 0 9 -4 15 -9z m664 -294 c22 -18
35 -23 26 -8 -6 10 60 19 134 20 55 0 85 -13 127 -56 17 -18 36 -33 42 -33 17
0 52 -33 62 -59 12 -30 -7 -85 -27 -77 -7 3 -16 1 -19 -5 -4 -5 -1 -8 7 -7 15
3 14 -55 -1 -60 -5 -2 -7 -10 -4 -18 3 -8 0 -14 -6 -14 -8 0 -9 -5 -1 -19 16
-31 12 -32 -25 -8 -19 12 -34 28 -35 36 0 8 -10 25 -22 38 -12 13 -18 26 -14
30 9 10 37 -8 50 -33 16 -29 30 -35 39 -17 13 23 -12 66 -36 59 -10 -2 -21 2
-23 9 -4 9 -16 12 -39 8 -33 -5 -34 -5 -32 28 1 23 -2 33 -11 31 -7 -1 -20 4
-28 12 -8 9 -21 13 -28 10 -7 -3 -20 1 -27 8 -8 7 -20 13 -28 13 -8 0 -18 14
-23 30 -7 27 -48 67 -48 46 0 -5 -10 -11 -22 -14 -22 -6 -22 -6 -4 8 19 14 19
15 2 15 -15 0 -16 3 -6 15 17 20 -4 20 -25 -1 -20 -21 -45 -11 -38 14 6 25 54
24 83 -1z m476 -860 c-1 -6 -9 -23 -18 -36 -14 -19 -16 -37 -11 -81 4 -42 1
-64 -11 -89 -10 -18 -15 -39 -12 -48 8 -21 29 -4 23 18 -5 19 -4 19 28 -1 l32
-20 28 22 c15 12 34 35 41 52 l15 31 -7 -35 c-6 -31 -5 -33 10 -21 10 8 7 -3
-10 -33 -31 -56 -96 -113 -142 -126 -40 -11 -54 -6 -45 16 3 9 13 14 24 11 17
-5 29 11 29 39 0 8 -6 14 -12 14 -31 1 -40 17 -33 63 4 26 11 44 16 41 11 -6
11 -1 2 21 -5 15 -8 15 -25 -6 -20 -26 -20 -24 8 66 19 61 49 115 64 115 4 0
7 -6 6 -13z m-1175 -7 c10 -6 19 -19 19 -30 0 -13 12 -25 34 -34 33 -14 64
-51 49 -59 -5 -2 -62 -4 -128 -5 -70 -1 -121 -6 -123 -12 -2 -6 -12 -15 -23
-21 -19 -10 -19 -9 0 21 24 40 128 150 142 150 6 0 19 -5 30 -10z m431 -123
c-2 -19 1 -27 11 -27 21 0 80 -77 74 -95 -4 -10 -13 -12 -34 -5 -15 5 -48 13
-73 19 -25 7 -49 13 -55 14 -5 2 -21 10 -35 19 -14 9 -37 22 -52 29 -34 15
-45 39 -18 39 11 0 42 -8 69 -19 54 -20 71 -14 71 24 0 27 9 37 30 33 10 -2
14 -12 12 -31z m-412 -158 c76 -13 330 -95 360 -116 l25 -18 -40 -6 c-26 -5
-49 -2 -67 7 -15 8 -31 15 -35 15 -5 0 -17 6 -29 14 -40 26 -185 54 -251 48
-34 -3 -72 -3 -85 0 -24 6 -62 59 -51 71 8 7 80 1 173 -15z m-223 -161 c1 -18
3 -42 6 -53 2 -11 0 -28 -4 -37 -8 -15 -6 -16 23 -6 18 6 39 18 45 26 7 9 16
12 20 8 4 -4 2 -11 -6 -15 -7 -5 -12 -14 -10 -22 3 -24 -35 -99 -51 -99 -12 0
-12 -2 -1 -9 8 -5 9 -11 3 -15 -5 -3 -12 1 -16 9 -3 8 -13 15 -22 15 -10 0
-14 -5 -10 -15 19 -46 19 -50 3 -30 -9 11 -17 26 -17 33 0 7 -3 11 -7 9 -15
-10 -6 157 11 196 20 46 32 47 33 5z m-4098 -229 c54 -11 72 -26 50 -40 -11
-7 -10 -9 4 -9 10 0 16 -4 13 -9 -3 -5 1 -11 9 -15 9 -3 15 -19 15 -41 0 -22
-4 -34 -10 -30 -5 3 -10 2 -10 -4 0 -5 6 -12 13 -15 8 -3 7 -8 -6 -16 -9 -6
-15 -15 -12 -20 8 -12 -13 -62 -24 -56 -4 3 -18 -7 -30 -22 -23 -31 -68 -40
-104 -21 -21 12 -21 12 -2 20 18 7 18 8 -5 9 -14 1 -34 6 -45 11 -17 8 -16 9
7 6 15 -2 25 0 22 4 -3 5 -11 9 -19 9 -8 0 -17 5 -21 11 -5 9 2 10 22 6 l29
-6 -27 12 c-33 13 -35 23 -10 50 15 18 15 20 1 14 -11 -3 -21 3 -29 18 -15 28
-7 55 16 55 10 0 14 -5 10 -16 -3 -8 -2 -12 4 -9 6 3 7 17 4 31 -4 16 -2 24 7
24 11 0 11 3 -1 10 -13 8 -12 10 4 10 15 0 16 3 7 14 -12 14 -7 17 56 25 7 0
35 -4 62 -10z m326 -29 c3 -5 15 -10 26 -10 10 0 19 -5 19 -10 0 -6 10 -8 24
-4 15 3 25 1 29 -9 3 -9 16 -13 31 -12 14 2 28 0 31 -5 3 -4 21 -4 40 0 19 4
35 5 35 1 0 -9 43 -6 61 4 7 5 24 8 37 6 20 -2 27 8 23 32 -1 5 13 0 30 -10
24 -13 33 -15 36 -5 6 16 33 16 33 -1 0 -7 10 -17 23 -22 16 -8 22 -18 20 -40
0 -17 1 -24 4 -17 9 22 43 14 44 -10 1 -22 1 -22 8 2 7 24 8 24 20 -11 7 -22
9 -53 5 -79 -5 -31 -3 -45 7 -52 12 -8 11 -9 -1 -5 -8 2 -17 14 -18 27 -2 13
-14 32 -25 42 -16 14 -17 18 -6 15 13 -4 15 -1 12 14 -7 25 -23 25 -30 0 -3
-11 -11 -22 -19 -25 -8 -3 -14 -15 -14 -27 0 -18 -4 -20 -27 -15 -22 5 -25 4
-13 -4 11 -9 12 -13 3 -17 -7 -2 -13 -12 -14 -21 0 -14 -2 -13 -9 3 -8 18 -9
18 -9 2 -1 -10 -5 -15 -11 -12 -5 3 -10 1 -10 -5 0 -11 -36 -10 -55 2 -5 3
-39 1 -75 -4 -119 -18 -220 -15 -180 5 6 3 5 4 -2 3 -26 -5 -13 -31 15 -29 33
2 36 -13 4 -19 -13 -2 -29 1 -35 9 -18 18 -46 17 -38 -2 3 -8 1 -15 -5 -15 -6
0 -7 -4 -4 -10 3 -5 -3 -10 -14 -10 -11 0 -23 5 -26 10 -3 6 -1 10 4 10 6 0
11 5 11 12 0 6 -9 3 -21 -8 -16 -14 -22 -15 -28 -5 -4 7 -15 13 -23 15 -22 3
-49 27 -42 37 3 5 -2 16 -10 25 -9 8 -16 13 -16 9 0 -3 -5 -3 -10 0 -8 5 -7
11 1 21 10 12 8 17 -7 28 -14 11 -16 17 -7 28 7 8 10 33 8 57 -2 24 -1 40 2
37 13 -12 41 25 35 46 -3 15 -1 19 6 14 7 -4 15 0 18 8 7 18 89 23 99 6z
m3885 -145 c5 -14 9 -67 8 -117 -2 -244 -2 -245 17 -275 l18 -28 -21 19 c-12
11 -22 26 -22 34 0 9 -7 23 -16 33 -27 29 -46 126 -39 193 12 112 17 151 22
159 9 14 24 7 33 -18z"/>
<path d="M4597 5310 c-29 -9 -77 -53 -77 -71 0 -5 -6 -20 -14 -32 -8 -12 -17
-46 -20 -75 -6 -50 -5 -53 22 -63 69 -27 110 -52 120 -74 14 -31 66 -44 156
-41 48 2 69 -1 73 -11 7 -17 74 38 108 88 17 26 33 39 48 39 20 0 23 -6 26
-42 6 -87 0 -160 -14 -154 -8 3 -10 -5 -7 -22 5 -23 6 -24 12 -7 6 16 8 17 16
4 5 -8 25 -25 44 -36 19 -12 34 -25 33 -28 -6 -12 -2 -25 8 -25 5 0 8 4 5 9
-8 13 18 21 45 14 12 -4 38 -21 58 -40 36 -34 51 -41 51 -23 0 6 -4 10 -9 10
-5 0 -11 6 -14 14 -5 11 1 12 30 4 19 -5 41 -7 49 -4 9 3 12 1 9 -4 -10 -16 7
-12 19 5 9 12 17 13 48 2 21 -7 40 -16 43 -19 9 -8 45 3 45 13 0 15 53 10 72
-8 45 -40 98 33 98 137 0 49 -5 63 -30 96 -47 60 -101 103 -142 115 -21 5 -38
14 -38 19 0 6 -7 10 -15 10 -8 0 -15 5 -15 10 0 6 -7 10 -16 10 -8 0 -12 -4
-9 -10 3 -5 -1 -10 -10 -10 -8 0 -18 6 -21 14 -3 8 -14 16 -25 19 -13 3 -19
14 -19 31 0 17 -5 26 -16 26 -9 0 -23 8 -30 18 -10 13 -27 17 -81 17 -52 0
-77 5 -99 20 -16 11 -33 18 -37 17 -5 -1 -25 3 -45 9 -20 6 -59 15 -87 20 -73
13 -315 19 -348 9z"/>
<path d="M4490 3093 c-1 -49 -5 -107 -9 -130 -7 -34 -4 -49 11 -74 11 -18 23
-28 26 -22 4 5 17 15 30 22 28 15 28 42 1 168 -18 85 -35 123 -53 123 -3 0 -6
-39 -6 -87z"/>
<path d="M6043 2153 c-22 -26 -49 -64 -60 -83 -27 -45 -97 -273 -129 -420 -14
-63 -29 -117 -33 -120 -5 -3 -11 -15 -15 -28 -4 -12 -17 -27 -29 -33 -18 -10
-24 -8 -42 15 -11 14 -22 36 -22 48 -1 13 -7 24 -13 26 -5 2 -10 12 -10 21 0
10 -9 26 -21 37 -12 10 -30 36 -40 57 -11 20 -21 37 -24 37 -7 0 21 -72 42
-110 11 -19 35 -61 53 -93 41 -74 34 -84 -10 -14 -34 52 -70 91 -77 83 -3 -2
0 -14 7 -25 6 -12 8 -21 5 -21 -4 0 0 -6 7 -14 7 -8 24 -30 38 -50 14 -19 39
-41 57 -50 29 -14 71 -71 60 -82 -7 -7 -156 74 -200 109 -21 16 -49 30 -62 31
-14 0 -23 6 -21 12 3 7 -16 10 -52 9 -42 0 -75 -10 -125 -33 -37 -18 -77 -32
-90 -33 -20 -1 -20 -1 4 -9 15 -4 68 -7 118 -6 73 2 91 -1 87 -11 -4 -11 -1
-11 15 -2 17 9 20 8 14 -2 -6 -9 -4 -11 8 -6 9 3 26 -4 41 -16 28 -24 35 -42
13 -34 -8 3 -20 1 -28 -5 -11 -8 -10 -9 5 -4 14 5 17 2 12 -11 -6 -15 -4 -15
14 2 23 20 32 16 34 -16 0 -12 8 -24 16 -26 13 -4 13 -3 0 6 -8 5 -11 13 -7
17 4 4 8 5 10 3 1 -2 13 -17 27 -34 18 -21 19 -25 4 -13 -19 17 -21 17 -38 0
-16 -16 -17 -16 -10 1 7 19 -11 24 -19 5 -4 -10 -6 -10 -6 0 -1 6 -6 12 -12
12 -6 0 -8 -7 -5 -17 6 -16 6 -16 -12 0 -21 19 -44 6 -35 -22 4 -13 3 -13 -5
-2 -6 8 -8 20 -5 28 7 18 -12 17 -27 -2 -10 -12 -10 -15 0 -15 8 0 10 -3 7 -6
-4 -4 -13 -1 -22 6 -21 17 -30 6 -11 -13 14 -13 14 -16 0 -21 -8 -3 -12 -2 -9
4 9 14 -8 12 -25 -2 -8 -7 -6 -2 5 11 20 24 20 24 0 17 -14 -5 -11 2 12 24 33
31 55 41 33 15 -22 -26 -6 -26 23 0 28 27 47 34 28 11 -9 -11 -5 -13 27 -12
28 1 38 5 38 18 0 12 -4 14 -13 7 -7 -7 -18 -7 -30 -1 -10 6 -33 8 -50 6 -37
-4 -41 2 -15 23 15 13 15 13 -6 3 -13 -6 -21 -17 -19 -25 4 -8 -3 -12 -19 -12
-13 0 -21 4 -18 9 4 6 -3 5 -15 -1 -12 -7 -27 -9 -34 -5 -6 4 -9 3 -4 -1 4 -5
-1 -17 -10 -27 -16 -18 -16 -18 0 -12 10 4 17 1 17 -6 0 -9 7 -7 20 5 11 10
23 16 26 13 3 -3 -9 -16 -26 -28 l-31 -22 -22 20 c-15 14 -32 19 -54 16 -30
-3 -45 8 -25 19 4 2 1 2 -7 0 -8 -2 -11 2 -7 12 3 9 2 13 -4 10 -6 -3 -10 1
-10 9 0 8 -5 18 -12 22 -8 5 -9 -2 -5 -24 3 -17 3 -32 -2 -34 -4 -2 1 -12 12
-23 11 -11 17 -15 14 -9 -5 8 2 11 18 10 22 -1 23 -3 9 -13 -12 -9 -13 -16 -5
-32 10 -17 9 -20 -4 -15 -8 3 -13 10 -10 14 8 13 -27 22 -39 10 -8 -8 -5 -9 9
-4 18 7 19 6 6 -9 -12 -15 -12 -17 1 -12 9 4 22 0 29 -7 13 -12 59 -23 59 -14
0 3 -7 12 -16 20 -8 9 -11 16 -5 16 6 0 11 5 11 11 0 6 -7 8 -17 5 -15 -6 -15
-4 2 14 20 22 43 28 29 8 -5 -7 -9 -20 -8 -28 1 -8 2 -21 3 -29 0 -7 7 -11 15
-8 8 3 13 -1 12 -11 -1 -12 6 -16 23 -14 l24 2 -27 -21 c-15 -12 -37 -23 -49
-24 -35 -4 -37 -5 -37 -15 0 -10 49 -8 66 3 6 3 11 -4 11 -16 1 -12 -1 -17 -5
-11 -4 6 -18 10 -32 8 -14 -1 -29 -3 -34 -3 -4 -1 -6 -8 -3 -15 4 -9 1 -13 -6
-10 -9 3 -13 -5 -12 -23 0 -21 5 -28 18 -27 17 2 17 1 1 -17 -10 -11 -22 -18
-28 -16 -6 3 -20 0 -31 -6 -18 -9 -19 -9 -5 8 14 17 13 18 -3 8 -11 -5 -38 -7
-65 -2 -26 4 -50 5 -53 3 -4 -2 -6 4 -5 13 0 9 -6 18 -14 20 -13 4 -13 3 0 -6
8 -6 10 -11 4 -11 -6 0 -19 9 -29 20 -10 11 -23 20 -29 20 -6 0 -4 -5 4 -11
13 -9 13 -10 -2 -6 -9 3 -26 -3 -39 -14 -36 -31 -37 -22 -1 12 17 16 32 31 32
33 0 6 -49 -2 -62 -10 -21 -14 -56 -12 -51 3 3 9 0 11 -10 7 -21 -8 -31 14
-15 34 11 15 11 15 -2 5 -9 -6 -28 -10 -42 -9 -22 3 -26 0 -19 -13 5 -9 6 -23
3 -31 -5 -13 -3 -13 12 -1 12 10 14 16 5 21 -8 6 -8 9 0 14 6 4 11 4 12 -1 0
-4 2 -17 3 -28 2 -17 -3 -21 -28 -20 -24 0 -31 -4 -31 -20 0 -11 -4 -26 -9
-33 -7 -12 -4 -12 15 -2 l24 13 -20 -23 -20 -23 25 13 c23 12 24 12 11 -4 -8
-9 -11 -19 -7 -23 3 -3 6 -2 6 4 0 6 7 13 15 17 13 5 14 2 4 -15 -9 -17 -8
-20 2 -14 9 6 11 3 6 -8 -4 -11 -2 -14 9 -10 7 3 14 10 14 16 0 6 3 7 6 4 4
-4 1 -14 -7 -23 -13 -16 -12 -16 11 -4 l25 13 -19 -22 c-15 -17 -16 -20 -4
-16 10 4 23 -3 36 -19 23 -30 37 -34 27 -9 -5 14 -4 16 6 6 10 -10 9 -17 -9
-33 -27 -26 -28 -34 -2 -20 16 9 18 8 14 -5 -4 -8 -10 -15 -15 -15 -5 0 -1 -9
8 -20 10 -11 22 -20 28 -20 5 0 4 4 -3 9 -10 6 -10 10 1 20 12 9 14 6 11 -17
-3 -26 -1 -29 26 -27 24 1 28 -1 18 -12 -9 -11 -13 -11 -19 -1 -8 13 -13 3 -9
-17 1 -5 -9 0 -22 12 -22 21 -24 21 -24 4 0 -11 6 -17 13 -14 19 8 16 -5 -8
-30 -54 -56 -82 -182 -59 -267 17 -66 92 -136 155 -146 51 -7 123 9 130 29 2
7 6 29 8 49 l5 38 -28 -30 c-46 -49 -115 -39 -145 21 -22 41 -12 63 38 84 23
10 58 30 77 44 l35 24 -25 -28 -25 -28 25 13 25 13 -25 -28 -25 -28 25 13 c25
13 25 13 7 -8 -17 -18 -17 -20 -1 -18 9 0 19 -6 21 -14 4 -13 3 -13 -7 0 -10
13 -11 13 -7 0 2 -8 12 -14 21 -14 9 1 16 -3 16 -8 0 -6 6 -8 13 -5 8 3 20 1
28 -5 11 -8 11 -9 -3 -4 -10 3 -20 1 -23 -4 -4 -6 -1 -10 4 -10 6 0 11 -17 12
-37 0 -30 7 -43 32 -63 17 -14 28 -19 24 -12 -13 19 0 14 22 -10 11 -12 31
-22 43 -24 13 -1 23 -3 23 -4 0 -2 34 -10 62 -14 14 -2 20 1 16 10 -7 20 7 17
24 -3 13 -17 13 -16 4 3 -5 11 -8 32 -7 47 2 19 0 24 -8 18 -6 -4 -19 -8 -28
-8 -14 0 -12 7 12 33 66 76 45 170 -54 239 -67 48 -83 69 -66 91 25 29 110 9
110 -27 0 -6 5 -7 10 -4 6 3 10 22 10 41 0 39 15 44 50 14 25 -22 35 -26 25
-10 -11 17 3 11 24 -11 20 -22 97 -34 107 -17 3 5 0 7 -7 6 -6 -2 -14 3 -17
11 -2 8 0 11 5 8 5 -3 9 3 9 13 0 18 -2 18 -25 -3 l-24 -22 12 22 c10 19 8 21
-13 19 -16 -2 -23 2 -22 13 1 9 -6 15 -16 15 -10 -1 -16 1 -13 5 2 4 -44 31
-104 59 -66 32 -125 70 -154 97 -26 24 -47 46 -47 48 0 10 40 -1 66 -19 81
-56 306 -155 397 -175 32 -7 60 -16 63 -21 3 -5 12 -4 20 3 11 9 14 8 14 -2 0
-11 2 -11 10 1 8 13 11 12 24 -5 11 -14 15 -16 16 -6 0 8 3 11 7 8 3 -4 16 1
27 10 20 18 21 18 5 -2 -9 -11 -19 -25 -22 -31 -10 -17 26 -13 47 5 18 15 19
15 12 -4 -5 -13 -4 -16 2 -10 15 16 32 110 32 179 0 124 31 246 98 384 33 67
67 162 64 175 -1 4 2 7 7 7 5 0 13 9 16 20 6 19 52 50 75 50 5 0 10 -7 10 -15
0 -8 -4 -15 -8 -15 -10 0 -48 -80 -45 -92 2 -5 -1 -8 -6 -8 -5 0 -8 -7 -7 -15
3 -18 16 -33 16 -18 0 6 21 33 46 59 79 83 90 114 42 114 -11 0 -31 9 -45 20
-14 11 -33 20 -43 20 -16 0 -46 46 -41 64 1 4 -3 14 -9 21 -9 11 0 28 39 77
28 35 66 93 85 129 19 36 41 71 50 78 9 8 16 18 16 23 0 11 -26 -15 -72 -73
-36 -45 -61 -56 -85 -36 -9 6 -13 6 -13 -2 0 -6 4 -11 8 -11 22 0 -6 -69 -40
-99 -25 -21 -45 -54 -64 -101 -15 -38 -30 -67 -34 -65 -11 7 -40 -41 -42 -70
-1 -14 -5 -25 -9 -25 -7 0 -20 -38 -25 -70 -1 -8 -9 -51 -18 -95 -8 -44 -17
-96 -20 -115 -2 -19 -3 8 0 60 2 52 13 143 24 201 11 58 18 126 16 150 -2 26
2 55 11 72 7 15 15 41 16 56 1 16 5 27 10 24 4 -2 7 0 7 5 0 5 -11 12 -24 14
-18 4 -23 1 -18 -10 3 -9 1 -13 -5 -9 -7 4 -16 -5 -21 -20 l-10 -28 -1 25 c-1
30 60 266 89 342 11 30 43 82 71 117 28 35 48 65 46 67 -2 3 -22 -17 -44 -43z
m-910 -1350 c-3 -7 -10 -13 -16 -13 -6 0 -7 -3 -4 -7 4 -3 17 2 29 13 20 18
21 18 15 1 -4 -10 -3 -16 2 -12 13 8 43 -25 37 -41 -3 -8 0 -11 8 -8 8 3 24
-5 36 -18 13 -13 19 -17 15 -10 -6 11 -3 12 14 3 11 -7 21 -16 21 -22 0 -6 -4
-8 -9 -5 -4 3 -25 -9 -46 -27 -27 -24 -39 -43 -45 -75 -4 -23 -3 -45 1 -48 5
-3 9 -10 9 -16 0 -6 -9 -3 -20 7 -16 14 -17 20 -8 27 10 6 10 10 -2 18 -10 6
-11 10 -2 10 6 0 12 5 12 11 0 5 -4 8 -9 5 -5 -3 -11 3 -14 14 -3 11 0 20 6
21 7 0 2 4 -11 9 -20 8 -21 13 -11 31 9 17 8 20 -2 14 -9 -6 -10 -3 -6 9 5 13
3 17 -7 13 -11 -4 -13 -1 -9 10 5 12 3 14 -7 8 -9 -6 -11 -4 -6 4 5 7 15 10
23 6 13 -4 14 -3 3 10 -7 8 -16 13 -20 10 -4 -2 -6 9 -4 25 3 22 0 28 -10 24
-8 -3 -16 -2 -19 3 -3 4 10 8 28 8 22 0 31 -4 28 -12z"/>
<path d="M4408 2151 c-20 -4 -44 -13 -52 -20 -22 -18 -112 -239 -136 -331 -11
-43 -20 -95 -20 -116 0 -50 30 -111 79 -158 l40 -39 56 47 c30 26 55 50 55 53
0 3 -7 0 -15 -7 -13 -10 -15 -9 -16 11 -1 16 -3 18 -6 7 -3 -10 -14 -16 -31
-16 -54 1 -72 -2 -72 -13 0 -7 19 -8 58 -4 l57 7 -35 -31 c-19 -16 -40 -30
-47 -31 -15 0 -83 79 -83 97 0 9 14 13 45 13 25 0 45 3 45 8 0 4 -23 5 -51 3
-55 -3 -69 6 -69 46 0 48 127 403 154 431 7 7 45 18 85 24 65 9 74 9 94 -8 18
-16 19 -16 8 -1 -12 16 -10 17 35 17 64 0 92 -8 97 -29 3 -11 5 -8 6 7 1 16
-7 25 -25 32 -29 11 -200 11 -256 1z"/>
<path d="M5135 1745 c-31 -30 -31 -36 -2 -80 l22 -34 11 32 c8 25 16 32 37 32
32 0 37 -19 7 -23 -26 -4 -26 -22 0 -22 11 0 20 -4 20 -10 0 -5 -9 -10 -20
-10 -18 0 -39 -25 -29 -35 2 -2 22 3 44 11 23 7 43 10 49 4 11 -11 -45 -40
-77 -40 -14 0 -28 -7 -31 -16 -4 -9 -13 -14 -22 -10 -8 3 -12 2 -9 -4 9 -15
32 -12 39 5 9 24 29 17 54 -18 20 -29 21 -32 5 -39 -10 -3 -13 -7 -6 -7 25 -2
64 19 57 31 -4 7 -3 8 5 4 16 -10 69 30 67 51 0 10 5 17 12 15 8 -1 11 2 7 8
-5 8 -13 6 -26 -6 -13 -11 -16 -20 -9 -24 7 -4 0 -14 -17 -25 l-28 -18 18 20
c12 14 15 23 8 28 -7 4 -2 18 14 39 14 18 25 37 25 42 0 4 -7 -2 -16 -15 l-16
-22 -47 65 c-34 47 -51 62 -58 55 -8 -8 -16 -4 -28 15 -21 32 -29 32 -60 1z"/>
<path d="M6596 1503 c-3 -3 -22 -7 -43 -8 -37 -3 -130 -44 -165 -73 -10 -9
-18 -12 -18 -8 0 3 -14 -6 -30 -21 -17 -15 -30 -34 -29 -42 3 -33 -1 -43 -15
-38 -10 4 -13 1 -9 -9 4 -10 0 -12 -11 -8 -12 5 -15 2 -9 -12 4 -12 3 -15 -5
-10 -8 5 -10 1 -5 -10 5 -13 3 -15 -7 -9 -9 5 -11 4 -6 -3 7 -11 0 -23 -35
-60 -49 -51 -132 -190 -123 -204 4 -6 2 -8 -4 -4 -12 7 -42 -30 -42 -52 0 -7
-7 -20 -16 -29 -8 -9 -13 -22 -10 -30 3 -8 2 -12 -3 -9 -11 7 -54 -92 -47
-110 3 -8 0 -13 -7 -11 -7 1 -11 -9 -10 -26 1 -15 -1 -25 -5 -23 -4 3 -8 -3
-9 -12 -1 -9 -4 -28 -8 -42 -12 -43 11 -2 51 90 41 97 72 157 90 179 7 9 39
48 71 86 32 39 87 109 123 155 86 112 243 267 279 275 16 3 37 15 49 25 11 10
23 16 26 13 3 -4 6 -2 6 3 0 6 -6 16 -12 23 -11 10 -10 11 5 6 9 -4 17 -5 17
-2 0 8 -27 16 -34 10z"/>
<path d="M6792 1499 c-13 -5 -38 -24 -55 -43 -86 -92 -115 -125 -112 -128 2
-2 -3 -9 -11 -16 -8 -7 -14 -11 -14 -8 0 2 -13 -9 -30 -24 -16 -15 -30 -34
-30 -41 0 -7 -3 -10 -6 -6 -3 3 -20 -11 -37 -31 -62 -73 -210 -225 -324 -333
-39 -37 -50 -49 -118 -134 -22 -27 -44 -53 -49 -57 -5 -3 -11 -12 -12 -20 -1
-7 -5 -22 -9 -33 -8 -22 28 13 108 109 45 52 98 100 201 181 44 35 216 225
361 400 55 66 115 134 135 152 38 34 39 46 2 32z"/>
<path d="M3096 1344 c31 -91 58 -192 65 -244 7 -49 16 -87 20 -85 4 3 12 -2
19 -10 7 -8 10 -15 6 -15 -3 0 3 -9 15 -21 29 -29 32 -19 15 42 -19 68 -22
101 -13 117 5 6 4 12 -1 12 -5 0 -9 6 -9 14 0 13 -58 152 -115 273 -16 33 -35
63 -42 66 -8 3 6 -52 40 -149z"/>
<path d="M4001 1198 c-2 -57 -5 -141 -5 -188 l-1 -85 43 -3 c41 -3 42 -2 36
23 -3 14 -3 60 1 101 l7 76 49 -4 c36 -4 49 -2 49 8 0 18 -40 44 -67 44 -20 0
-23 5 -23 35 l0 35 51 0 c28 0 59 -5 71 -11 24 -13 32 -7 24 19 -9 28 -47 40
-146 47 l-85 6 -4 -103z"/>
<path d="M4265 1213 c0 -43 -4 -126 -9 -185 l-8 -108 37 0 c34 0 37 2 31 23
-3 13 -1 87 4 166 11 154 6 181 -33 181 -21 0 -22 -4 -22 -77z"/>
<path d="M3266 1230 c3 -19 10 -41 15 -50 4 -8 15 -35 24 -59 18 -50 87 -172
110 -195 8 -8 26 -36 40 -63 15 -26 24 -39 21 -28 -3 11 -8 34 -11 50 -14 63
-41 123 -90 194 -27 40 -53 78 -57 85 -4 6 -19 31 -33 56 l-26 45 7 -35z"/>
<path d="M4472 1168 c-6 -35 -14 -94 -18 -131 -12 -122 -37 -91 -49 62 -8 107
-11 121 -32 121 -11 0 -13 -8 -9 -27 3 -16 8 -75 12 -132 6 -103 17 -130 54
-143 9 -3 8 -13 -4 -42 -19 -45 -17 -49 17 -41 25 7 39 31 51 85 13 61 37 291
31 300 -3 5 -14 10 -24 10 -14 0 -20 -14 -29 -62z"/>
<path d="M3235 1098 c3 -12 8 -24 12 -27 5 -3 10 -19 11 -36 2 -16 35 -91 74
-165 39 -74 79 -152 89 -172 11 -21 24 -38 30 -38 6 0 8 -3 5 -8 -2 -4 25 -43
60 -86 62 -76 64 -78 64 -47 0 22 5 31 16 31 11 0 14 5 10 16 -3 9 -6 20 -6
25 0 5 -7 9 -15 9 -9 0 -15 9 -15 21 0 12 -16 37 -35 56 -19 19 -45 49 -57 67
-12 17 -25 33 -29 36 -3 3 -42 61 -85 130 -43 69 -85 134 -92 145 -6 11 -16
30 -22 43 -12 28 -20 29 -15 0z"/>
<path d="M3471 957 c-14 -18 28 -175 66 -242 l28 -50 3 33 c2 24 8 32 23 32
27 0 24 26 -6 54 -24 23 -25 26 -13 70 7 25 15 46 18 46 6 0 6 9 1 52 -1 9
-34 -2 -42 -15 -4 -5 -12 0 -18 12 -13 24 -43 28 -60 8z"/>
<path d="M4685 720 c-57 -57 -66 -70 -48 -70 12 0 24 -4 27 -8 2 -4 6 -92 7
-194 1 -103 6 -185 10 -182 4 2 10 0 14 -6 3 -5 21 -10 40 -10 19 0 37 -5 40
-10 4 -6 11 -8 16 -5 13 9 11 -9 -3 -25 -7 -8 -2 -6 11 5 24 20 24 20 18 0 -7
-19 -6 -19 7 -2 7 9 17 17 21 17 4 0 4 -8 1 -17 -6 -17 -5 -17 8 0 7 9 17 17
21 17 4 0 4 -8 0 -17 -5 -14 -4 -15 6 -6 10 10 7 18 -15 39 -25 25 -28 26 -43
11 -15 -15 -18 -13 -34 17 -13 25 -19 70 -24 199 -7 152 -6 167 9 173 10 4 29
1 43 -5 30 -14 33 -12 36 25 2 28 0 29 -45 32 l-47 3 -3 44 -3 44 -70 -69z"/>
<path d="M4452 700 c-12 -5 -27 -21 -32 -35 -13 -35 -13 -40 4 -26 19 16 66
10 79 -10 18 -28 -1 -66 -51 -102 -40 -28 -51 -43 -61 -80 -15 -60 -14 -170 1
-185 18 -18 52 -14 81 8 l26 21 11 -21 c9 -16 21 -20 65 -20 56 0 65 6 43 28
-9 9 -15 67 -18 186 -6 192 -9 204 -77 232 -37 16 -40 16 -71 4z"/>
<path d="M3697 688 c-9 -7 -20 -24 -26 -38 -9 -26 -10 -26 -26 25 -7 24 -26
17 -21 -7 3 -13 10 -108 17 -213 10 -167 18 -220 33 -204 2 2 0 27 -4 54 -14
79 -12 289 2 303 17 17 48 15 55 -4 3 -10 7 -92 7 -183 l1 -166 43 -3 43 -3
-17 33 c-14 28 -16 52 -11 172 5 123 9 142 27 160 l20 20 22 -21 c21 -21 22
-30 19 -172 -3 -180 1 -191 65 -191 41 0 45 2 38 18 -5 9 -10 91 -11 182 -1
91 -2 173 -2 183 -2 32 -47 67 -86 67 -38 0 -75 -28 -75 -57 0 -12 -9 -6 -31
20 -32 39 -54 45 -82 25z"/>
<path d="M4037 669 c11 -23 14 -48 9 -107 -4 -42 -7 -122 -9 -178 -3 -122 4
-134 74 -134 l50 0 -17 31 c-14 27 -15 56 -9 206 8 203 5 213 -71 213 l-42 0
15 -31z"/>
<path d="M4206 683 c11 -25 12 -139 3 -271 -10 -149 -5 -162 61 -162 l50 0
-16 34 c-14 29 -15 52 -7 164 10 144 24 178 70 169 20 -4 23 0 23 28 0 59 -39
65 -68 10 -10 -19 -11 -18 -22 7 -13 27 -35 38 -79 38 -18 0 -22 -4 -15 -17z"/>
<path d="M6365 393 c-112 -14 -355 -57 -380 -67 -43 -18 -95 -65 -95 -85 0
-23 36 -56 45 -42 10 17 35 13 35 -5 0 -11 6 -14 23 -9 49 14 169 76 213 109
48 37 103 60 131 54 12 -2 -1 -19 -47 -63 -34 -33 -77 -74 -95 -91 -34 -33
-64 -51 -127 -79 -42 -19 -58 -45 -27 -45 11 0 30 7 42 14 12 8 44 20 71 26
31 7 64 24 91 48 58 51 189 122 224 122 16 0 60 16 97 36 71 38 114 40 114 6
0 -16 6 -18 48 -12 26 3 58 13 72 20 16 10 57 14 117 15 81 0 88 1 59 11 -94
33 -465 56 -611 37z"/>
<path d="M3135 302 c-2 -3 19 -50 48 -105 66 -128 131 -197 185 -197 l37 0
-33 17 c-41 20 -155 145 -194 213 -16 27 -26 50 -23 50 19 0 67 -36 115 -85
54 -56 151 -111 255 -145 57 -18 60 -21 40 -37 -18 -12 -17 -13 8 -13 l27 0 0
128 0 127 -93 2 c-50 2 -154 13 -230 26 -76 12 -140 21 -142 19z"/>
</g>
</svg>
